<?xml version="1.0" standalone="no"?>
<!DOCTYPE svg PUBLIC "-//W3C//DTD SVG 1.1//EN" "http://www.w3.org/Graphics/SVG/1.1/DTD/svg11.dtd" >
<svg>
<metadata>
Created by FontForge 20090914 at Thu Apr 14 08:01:17 2016
 By www-data
All rights reserved to Ben Nathan 2002 &#194;&#169; &#60;murman_x@hotmail.com&#62;
</metadata>
<defs>
<font id="BNBilbo" horiz-adv-x="10" >
  <font-face 
    font-family="BN Bilbo"
    font-weight="4"
    font-stretch="normal"
    units-per-em="1000"
    panose-1="0 0 0 0 0 0 0 0 0 0"
    ascent="800"
    descent="-200"
    bbox="-58 -180.132 560.001 784"
    underline-thickness="20"
    underline-position="-123"
    unicode-range="U+0020-U+266B"
  />
<missing-glyph horiz-adv-x="500" 
d="M63 0v784h375v-784h-375zM125 63h250v659h-250v-659z" />
    <glyph glyph-name=".notdef" horiz-adv-x="500" 
d="M63 0v784h375v-784h-375zM125 63h250v659h-250v-659z" />
    <glyph glyph-name="space" unicode=" " horiz-adv-x="350" 
 />
    <glyph glyph-name="exclam" unicode="!" horiz-adv-x="208" 
d="M116 262c0 -26 -10.002 -47.167 -30.002 -63.5s-43.333 -25.833 -70 -28.5c-10.667 -1.33301 -16 2 -16 10v315c0 5.33301 2.33301 10 7 14s8.33398 6 11.001 6h80c2.66699 0 6.33398 -2 11.001 -6s7 -8.66699 7 -14v-233zM-0.00195312 59c0 16 5.66699 29.667 17 41
s25 17 41 17s29.667 -5.66699 41 -17s17 -25 17 -41s-5.66699 -29.667 -17 -41s-25 -17 -41 -17s-29.667 5.66699 -41 17s-17 25 -17 41z" />
    <glyph glyph-name="quotedbl" unicode="&#x22;" horiz-adv-x="396" 
d="M116 412c0 -51.333 -33.335 -82 -100.002 -92c-10.667 -1.33301 -16 2 -16 10v215c0 5.33301 2.33301 10 7 14s8.33398 6 11.001 6h80c2.66699 0 6.33398 -2 11.001 -6s7 -8.66699 7 -14v-133zM315.998 412c0 -51.333 -33.335 -82 -100.002 -92
c-10.667 -1.33301 -16 2 -16 10v215c0 5.33301 2.33301 10 7 14s8.33398 6 11.001 6h80c2.66699 0 6.33398 -2 11.001 -6s7 -8.66699 7 -14v-133z" />
    <glyph glyph-name="numbersign" unicode="#" horiz-adv-x="5" 
 />
    <glyph glyph-name="dollar" unicode="$" horiz-adv-x="5" 
 />
    <glyph glyph-name="percent" unicode="%" horiz-adv-x="529" 
d="M21 20c-2 -3.33301 -3 -6.33301 -3 -9c0 -7.33301 3 -11 9 -11h80c12 0 22.333 6.66699 31 20l295 475c2 2.66699 3 5.66699 3 9c0 7.33301 -3 11 -9 11h-80c-12 0 -22.333 -6.66699 -31 -20zM380 0c-34 -8 -62.666 -4.33398 -85.999 10.999
c-31.333 20 -47 59.667 -47 119c0 60 15.667 100 47 120c23.333 14.667 52 18.334 86 11.001c26 -6 46 -21.667 60 -47c12.667 -22 19 -48.333 19 -79c0 -32.667 -6.66699 -61.334 -20 -86.001c-14.667 -27.333 -34.334 -43.666 -59.001 -48.999zM354.001 42.999
c12.667 -0.666992 23 8 31 26c6.66699 16 10 36 10 60c0 24.667 -3.66699 45.334 -11 62.001c-7.33301 19.333 -17.333 28.666 -30 27.999h-7c-23.333 -5.33301 -35 -35 -35 -89c0 -53.333 11.667 -82.333 35 -87h7zM135.001 253.999c-34 -8 -63 -4.33398 -87 10.999
c-30.667 20 -46 59.667 -46 119c0 60 15.333 100 46 120c24 14.667 53 18.334 87 11.001c25.333 -6 45.333 -21.667 60 -47c12.667 -22 19 -48.333 19 -79c0 -32 -7.16699 -61 -21.5 -87s-33.5 -42 -57.5 -48zM108.001 296.998c13.333 -0.666992 23.667 8 31 26
c6.66699 16 10 36 10 60c0 24.667 -3.33301 45.334 -10 62.001c-8 19.333 -18.333 28.666 -31 27.999h-6c-23.333 -5.33301 -35 -35 -35 -89c0 -52.667 11.667 -81.667 35 -87h6z" />
    <glyph glyph-name="ampersand" unicode="&#x26;" horiz-adv-x="652" 
d="M116 388l92.001 -0.00195312c41.333 0 68.333 -20.333 81 -61c7.33301 -22.667 11 -63 11 -121v-96c0 -8 5.33301 -11.333 16 -10c66.667 18.667 100 49.334 100 92.001v18c0 143.333 -69.333 215 -208 215h-190c-2.66699 0 -6.33398 -2 -11.001 -6s-7 -8.66699 -7 -14
v-395c-0 -8 5.33301 -11.333 16 -10c66.667 18.667 100 49.334 100 92.001v296zM444.001 36.998l-92.002 0.00195312c-41.333 0 -68.333 18.667 -81 56c-7.33301 21.333 -11 60 -11 116v96c0 8 -5.33301 11.333 -16 10c-66.667 -18.667 -100 -49.334 -100 -92.001v-18
c0 -74 18.667 -127.667 56 -161c32.667 -29.333 83.334 -44 152.001 -44h190c2.66699 0 6.33398 2 11.001 6s7 8.66699 7 14v395c0 8 -5.33301 11.333 -16 10c-66.667 -18.667 -100 -49.334 -100 -92.001v-296z" />
    <glyph glyph-name="quotesingle" unicode="'" horiz-adv-x="196" 
d="M116 412c0 -51.333 -33.335 -82 -100.002 -92c-10.667 -1.33301 -16 2 -16 10v215c0 5.33301 2.33301 10 7 14s8.33398 6 11.001 6h80c2.66699 0 6.33398 -2 11.001 -6s7 -8.66699 7 -14v-133z" />
    <glyph glyph-name="parenleft" unicode="(" horiz-adv-x="352" 
d="M212 547c11.333 6 30.335 14 57.002 24c9.33301 15.333 11.666 28.333 6.99902 39c-22 -6.66699 -54.333 -18 -97 -34c-58.667 -28.667 -103.667 -71.667 -135 -129c-29.333 -52.667 -44 -111.667 -44 -177c0 -68.667 16.333 -132.667 49 -192
c34 -62.667 81.333 -109.334 142 -140.001c19.333 -10 47.666 -19.333 84.999 -28c4.66699 10.667 2.33398 23.667 -6.99902 39c-8.66699 2.66699 -23.334 8.66699 -44.001 18c-35.333 20.667 -63.333 61.334 -84 122.001c-19.333 56 -29 118.667 -29 188
c0 62.667 8 117.667 24 165c18 52 43.333 87 76 105z" />
    <glyph glyph-name="parenright" unicode=")" horiz-adv-x="353" 
d="M64 547c-11.333 6 -30.335 14 -57.002 24c-9.33301 15.333 -11.666 28.333 -6.99902 39c22 -6.66699 54.333 -18 97 -34c58.667 -28.667 103.667 -71.667 135 -129c29.333 -52.667 44 -111.667 44 -177c0 -68.667 -16.333 -132.667 -49 -192
c-34 -62.667 -81.333 -109.334 -142 -140.001c-19.333 -10 -47.666 -19.333 -84.999 -28c-4.66699 10.667 -2.33398 23.667 6.99902 39c8.66699 2.66699 23.334 8.66699 44.001 18c35.333 20.667 63.333 61.334 84 122.001c19.333 56 29 118.667 29 188
c0 62.667 -8 117.667 -24 165c-18 52 -43.333 87 -76 105z" />
    <glyph glyph-name="asterisk" unicode="*" horiz-adv-x="5" 
 />
    <glyph glyph-name="plus" unicode="+" horiz-adv-x="326" 
d="M152 132c0 -8 -4.33203 -15.333 -12.999 -22s-16.334 -10 -23.001 -10v120h-116c-0 6.66699 3.33301 14.5 10 23.5s14 13.5 22 13.5h84v78c0 22 12 33 36 33v-111h116c0 -24.667 -11 -37 -33 -37h-83v-88z" />
    <glyph glyph-name="comma" unicode="," horiz-adv-x="153" 
d="M45 88l71 -47l-110 -130l-34 23z" />
    <glyph glyph-name="hyphen" unicode="-" horiz-adv-x="349" 
d="M0 220c0 6.66699 3.33301 14.5 10 23.5s14 13.5 22 13.5h236c0 -24.667 -11 -37 -33 -37h-235z" />
    <glyph glyph-name="hyphen" unicode="&#x2010;" horiz-adv-x="349" 
d="M0 220c0 6.66699 3.33301 14.5 10 23.5s14 13.5 22 13.5h236c0 -24.667 -11 -37 -33 -37h-235z" />
    <glyph glyph-name="period" unicode="." horiz-adv-x="147" 
d="M0 44c0 12.667 4.33301 23.334 13 32.001s19 13 31 13c12.667 0 23.334 -4.33301 32.001 -13s13 -19.334 13 -32.001c0 -12 -4.33301 -22.333 -13 -31s-19.334 -13 -32.001 -13c-12 -0 -22.333 4.33301 -31 13s-13 19 -13 31z" />
    <glyph glyph-name="slash" unicode="/" horiz-adv-x="433" 
d="M-6 20c-2 -3.33301 -3 -6.33301 -3 -9c0 -7.33301 3 -11 9 -11h80c12 0 22.333 6.66699 31 20l295 475c2 2.66699 3 5.66699 3 9c0 7.33301 -3 11 -9 11h-80c-12 0 -22.333 -6.66699 -31 -20z" />
    <glyph glyph-name="zero" unicode="0" horiz-adv-x="505" 
d="M268 -1c-20.667 -4.66699 -41.667 -6.99902 -63 -6.99902c-42.667 0 -79.167 9.5 -109.5 28.5s-53.833 51.5 -70.5 97.5c-16 42 -24 89 -24 141c0 52.667 8 100 24 142c16.667 45.333 40.167 77.666 70.5 96.999s66.833 29 109.5 29c72 0 127.667 -25.333 167 -76
c36 -46 54 -107 54 -183c0 -64 -13.667 -121 -41 -171c-29.333 -54 -68.333 -86.667 -117 -98zM217 40.001c32.667 -1.33301 58.332 20.666 76.999 65.999c17.333 40 26 90 26 150c0 60.667 -9 112.667 -27 156c-19.333 47.333 -44.666 70.333 -75.999 69
c-3.33301 0 -8.66602 -0.333008 -15.999 -1c-28 -6 -50 -31.333 -66 -76c-15.333 -41.333 -23 -90 -23 -146c0 -55.333 7.33301 -102.666 22 -141.999c16 -44 38.333 -69 67 -75c1.33301 -0.666992 6.66602 -1 15.999 -1z" />
    <glyph glyph-name="one" unicode="1" horiz-adv-x="322" 
d="M241 92c0 -26 -10.001 -47.165 -30.001 -63.498s-43.333 -25.833 -70 -28.5c-10.667 -1.33301 -16 2 -16 10v358c-11.333 -16.667 -27 -32.667 -47 -48c-22 -16.667 -40.667 -26.334 -56 -29.001l-22 42c36.667 39.333 59 63.666 67 72.999c24 29.333 43.333 59 58 89
c6.66699 13.333 13 20 19 20h79c2.66699 0 6.33398 -2 11.001 -6s7 -8.66699 7 -14v-403z" />
    <glyph glyph-name="two" unicode="2" horiz-adv-x="496" 
d="M424 0h-424.001c0 15.333 11 27.666 33 36.999c39.333 24 75.333 48 108 72c78 58 131.667 110.333 161 157c13.333 20.667 20 46.667 20 78c0 36.667 -8.66699 66.667 -26 90c-27.333 36.667 -60.666 55 -99.999 55c-34 0 -83 -10.667 -147 -32
c-16 -2.66699 -25.667 5.33301 -29 24c68.667 29.333 131 44 187 44c26 0 50.667 -3.33301 74 -10c44 -12.667 78.5 -34.667 103.5 -66s37.5 -66.666 37.5 -105.999c0 -40 -13 -78.667 -39 -116c-47.333 -68 -124 -131.333 -230 -190h238c8 0 15.5 -4.5 22.5 -13.5
s10.5 -16.833 10.5 -23.5z" />
    <glyph glyph-name="three" unicode="3" horiz-adv-x="475" 
d="M384 464c0 -31.333 -25.998 -66.001 -77.998 -104.001c-38.667 -28 -72 -46.667 -100 -56c16 3.33301 31.667 5 47 5c45.333 0 82.666 -14.667 111.999 -44c26.667 -27.333 40 -60.666 40 -99.999c0 -35.333 -11.333 -67.333 -34 -96c-26 -31.333 -62.667 -54 -110 -68
c-23.333 -6.66699 -48 -10 -74 -10c-56 0 -118.333 14.667 -187 44c3.33301 18.667 13 26.667 29 24c52.667 -20 99.667 -30 141 -30c51.333 0 91.666 15.667 120.999 47c17.333 18 26 45.333 26 82c0 40.667 -10 69.334 -30 86.001c-14 12 -33 18 -57 18
c-18 0 -50.333 -5.33301 -97 -16c-4.66699 -0.666992 -10 3 -16 11s-9 16.333 -9 25c0 11.333 5.66699 19.666 17 24.999c48 21.333 92.333 57 133 107c10 12 15 23 15 33c0 20.667 -14.667 31 -44 31h-197c-8 0 -15.333 4.33301 -22 13s-10 16.667 -10 24h340
c29.333 0 44 -17 44 -51z" />
    <glyph glyph-name="four" unicode="4" horiz-adv-x="522" 
d="M461 120h-65v-28c0 -51.333 -33.333 -82 -100 -92c-10.667 -1.33301 -16 2 -16 10v110h-273c-7.33301 0 -11 4.33301 -11 13c0 2.66699 0.666992 5 2 7l159 371c3.33301 8.66699 10 12 20 10c45.333 -6.66699 68 -26 68 -58c0 -10 -2.66699 -21.333 -8 -34l-116 -272h159
v98c0 5.33301 2.16699 10 6.5 14s8.16602 6 11.499 6h80c2.66699 0 6.33398 -2 11.001 -6s7 -8.66699 7 -14v-98h32c22 0 33 -12.333 33 -37z" />
    <glyph glyph-name="five" unicode="5" horiz-adv-x="452" 
d="M385 243c8.66699 -22.667 13 -46 13 -70c0 -58 -20.833 -102.833 -62.5 -134.5s-91.167 -47.5 -148.5 -47.5c-56 0 -118.333 14.667 -187 44c3.33301 18.667 13 26.667 29 24c52.667 -20 96.667 -30 132 -30c44 0 80.667 15.667 110 47c16 16.667 24 45.667 24 87
c0 34 -6.33301 64 -19 90c-18.667 38 -50 57 -94 57c-19.333 0 -44.666 -4 -75.999 -12l-80 -22c-8 -2 -13.333 0.333008 -16 7c-2.66699 4.66699 -3.33398 11 -2.00098 19l26 213h350c0 -7.33301 -3.33301 -15.333 -10 -24s-14 -13 -22 -13h-217
c-5.33301 -44 -11.333 -88.667 -18 -134c32.667 8 63 12 91 12c89.333 0 148.333 -37.667 177 -113z" />
    <glyph glyph-name="six" unicode="6" horiz-adv-x="530" 
d="M457 180c0 -52.667 -19.999 -99 -59.999 -139s-94.333 -60 -163 -60c-64.667 0 -118 19 -160 57c-38 34 -60 85.333 -66 154c-0.666992 8.66699 -1 17.334 -1 26.001c0 92 52.333 174.333 157 247c32 22 82 42 150 60c0 -3.33301 2.16699 -8.33301 6.5 -15
s6.5 -11.334 6.5 -14.001c0 -3.33301 -1.66699 -6 -5 -8c-14.667 -5.33301 -28.334 -11 -41.001 -17c-29.333 -14.667 -51.333 -29 -66 -43c-32.667 -31.333 -56.667 -63 -72 -95c37.333 26.667 76.333 40 117 40c52 0 97.833 -19.333 137.5 -58s59.5 -83.667 59.5 -135z
M336.001 253c-20.667 38 -52.668 57 -96.001 57c-36.667 0 -68.667 -13 -96 -39c-21.333 -21.333 -33.666 -50 -36.999 -86c-4.66699 -57.333 14.333 -100.333 57 -129c23.333 -15.333 48 -23 74 -23c36.667 0 67.667 15 93 45c16 18.667 24 48.667 24 90
c0 32.667 -6.33301 61 -19 85z" />
    <glyph glyph-name="seven" unicode="7" horiz-adv-x="461" 
d="M390 412l-217 -383.999c-14 -25.333 -33.333 -38 -58 -38c-18.667 0 -37.667 6.66699 -57 20c-9.33301 4 -12 9.66699 -8 17l234 398c3.33301 14 5 24.333 5 31c0 14.667 -9 22 -27 22h-230c-8 0 -15.333 4.33301 -22 13s-10 16.667 -10 24h332
c43.333 0 65 -20.667 65 -62c0 -12.667 -2.33301 -26.334 -7 -41.001z" />
    <glyph glyph-name="eight" unicode="8" horiz-adv-x="487" 
d="M414 141c-8 -71.333 -55.667 -119.667 -143 -145c-17.333 -5.33301 -39 -8 -65 -8s-47.667 2.66699 -65 8c-47.333 14 -84 36.333 -110 67c-22.667 28 -34 59.333 -34 94c0 34 11.333 64.667 34 92s53.334 44.333 92.001 51c-56 20 -84.667 57.333 -86 112
c-0.666992 31.333 17.666 58 54.999 80c34 21.333 71.667 32.333 113 33c40 0.666992 77.833 -9.16602 113.5 -29.499s54.167 -44.5 55.5 -72.5c4 -58 -25 -99 -87 -123c42 -6.66699 74.667 -25.334 98 -56.001s33 -65 29 -103zM285 411.999
c-3.33301 18 -12.3311 32.833 -26.998 44.5s-31 17.5 -49 17.5h-6c-18 0 -35 -7 -51 -21s-24.333 -30.667 -25 -50c-0.666992 -20.667 6.66602 -38.5 21.999 -53.5s33.666 -22.833 54.999 -23.5c23.333 -0.666992 43.5 8 60.5 26s23.833 38 20.5 60zM298.002 78.999
c16.667 17.333 24.999 42.333 24.999 75c0 36 -9.66699 62.333 -29 79c-26 22 -55.333 33 -88 33s-62 -11 -88 -33c-19.333 -16.667 -29 -43 -29 -79c0 -32.667 8.33301 -57.667 25 -75c28.667 -30 59.334 -45 92.001 -45c33.333 0 64 15 92 45z" />
    <glyph glyph-name="nine" unicode="9" horiz-adv-x="534" 
d="M457 314c0.666992 -9.33301 0.99707 -18.334 0.99707 -27.001c0 -92 -52.333 -174 -157 -246c-32 -22.667 -82 -42.667 -150 -60c0 2.66699 -2.16699 7.33398 -6.5 14.001s-6.5 11.334 -6.5 14.001c0 3.33301 1.66699 6 5 8c14.667 6 28.334 12 41.001 18
c29.333 14 51.333 28 66 42c31.333 30 55.333 61.667 72 95c-37.333 -26 -76.666 -39 -117.999 -39c-52 0 -97.667 19.167 -137 57.5s-59 83.166 -59 134.499c0 53.333 20.333 100 61 140c38.667 39.333 92.334 59 161.001 59c65.333 0 119 -18.667 161 -56
c37.333 -34 59.333 -85.333 66 -154zM357.997 320.999c3.33301 52.667 -15.667 95.334 -57 128.001c-24 14.667 -49 22 -75 22c-36.667 0 -67.334 -14.667 -92.001 -44c-16.667 -18.667 -25 -48.334 -25 -89.001c0 -33.333 6.66699 -62 20 -86c20.667 -38 53 -57 97 -57
c36.667 0 68 13 94 39c22.667 22 35.334 51 38.001 87z" />
    <glyph glyph-name="colon" unicode=":" horiz-adv-x="168" 
d="M89 344c0 -12 -4.33301 -22.333 -13 -31s-19.334 -13 -32.001 -13c-12 0 -22.333 4.33301 -31 13s-13 19 -13 31c0 12.667 4.33301 23.334 13 32.001s19 13 31 13c12.667 0 23.334 -4.33301 32.001 -13s13 -19.334 13 -32.001zM89 44c0 -12 -4.33301 -22.333 -13 -31
s-19.334 -13 -32.001 -13c-12 -0 -22.333 4.33301 -31 13s-13 19 -13 31c0 12.667 4.33301 23.334 13 32.001s19 13 31 13c12.667 0 23.334 -4.33301 32.001 -13s13 -19.334 13 -32.001z" />
    <glyph glyph-name="semicolon" unicode=";" horiz-adv-x="150" 
d="M89 344c0 -12 -4.33301 -22.333 -13 -31s-19.334 -13 -32.001 -13c-12 0 -22.333 4.33301 -31 13s-13 19 -13 31c0 12.667 4.33301 23.334 13 32.001s19 13 31 13c12.667 0 23.334 -4.33301 32.001 -13s13 -19.334 13 -32.001zM86 41l-110 -130l-34 23l73 154z" />
    <glyph glyph-name="less" unicode="&#x3c;" horiz-adv-x="250" 
d="M158 142c7.33301 -6 11 -16.332 11 -30.999c0 -16 -4.66699 -28.667 -14 -38l-148 156c-4.66699 4 -7 9.66699 -7 17c-0 5.33301 2.33301 10.333 7 15l148 156c9.33301 -8.66699 14 -21 14 -37c0 -14.667 -3.66699 -25.334 -11 -32.001l-125 -104z" />
    <glyph glyph-name="equal" unicode="=" horiz-adv-x="329" 
d="M268 327c0 -24.667 -11 -37 -33 -37h-235c-0 6.66699 3.33301 14.5 10 23.5s14 13.5 22 13.5h236zM268 187c0 -24.667 -11 -37 -33 -37h-235c-0 6.66699 3.33301 14.5 10 23.5s14 13.5 22 13.5h236z" />
    <glyph glyph-name="greater" unicode="&#x3e;" horiz-adv-x="219" 
d="M169 246c0 -7.33301 -2.66699 -13.001 -8 -17.001l-147 -156c-9.33301 9.33301 -14 22 -14 38c0 14.667 3.66699 25 11 31l125 102l-125 104c-7.33301 6.66699 -11 17.334 -11 32.001c0 16 4.66699 28.333 14 37l147 -156c5.33301 -4.66699 8 -9.66699 8 -15z" />
    <glyph glyph-name="question" unicode="?" horiz-adv-x="483" 
d="M408 385c-6 40 -22.6689 69.333 -50.002 88c-21.333 14.667 -57 27 -107 37c-22.667 4.66699 -46 7 -70 7c-56.667 0 -117 -13.667 -181 -41c3.33301 -18.667 13 -26.667 29 -24c58.667 20 107.667 30 147 30c82 0 123.667 -41.667 125 -125
c0 -25.333 -30.667 -63 -92 -113c-19.333 -16 -32.666 -35 -39.999 -57c-4 -13.333 -5 -32 -3 -56c0 -6 5.33301 -9 16 -9c20.667 0 34.667 4 42 12l3 23c3.33301 25.333 14 45.333 32 60c6.66699 5.33301 28.334 17.333 65.001 36c57.333 32 86 70 86 114
c0 6 -0.666992 12 -2 18zM149.998 44c0 12.667 4.33301 23.334 13 32.001s19 13 31 13c12.667 0 23.334 -4.33301 32.001 -13s13 -19.334 13 -32.001c0 -12 -4.33301 -22.333 -13 -31s-19.334 -13 -32.001 -13c-12 -0 -22.333 4.33301 -31 13s-13 19 -13 31z" />
    <glyph glyph-name="at" unicode="@" horiz-adv-x="5" 
 />
    <glyph glyph-name="A" unicode="A" horiz-adv-x="5" 
 />
    <glyph glyph-name="B" unicode="B" horiz-adv-x="5" 
 />
    <glyph glyph-name="C" unicode="C" horiz-adv-x="5" 
 />
    <glyph glyph-name="D" unicode="D" horiz-adv-x="5" 
 />
    <glyph glyph-name="E" unicode="E" horiz-adv-x="5" 
 />
    <glyph glyph-name="F" unicode="F" horiz-adv-x="5" 
 />
    <glyph glyph-name="G" unicode="G" horiz-adv-x="5" 
 />
    <glyph glyph-name="H" unicode="H" horiz-adv-x="5" 
 />
    <glyph glyph-name="I" unicode="I" horiz-adv-x="5" 
 />
    <glyph glyph-name="J" unicode="J" horiz-adv-x="5" 
 />
    <glyph glyph-name="K" unicode="K" horiz-adv-x="5" 
 />
    <glyph glyph-name="L" unicode="L" horiz-adv-x="5" 
 />
    <glyph glyph-name="M" unicode="M" horiz-adv-x="5" 
 />
    <glyph glyph-name="N" unicode="N" horiz-adv-x="5" 
 />
    <glyph glyph-name="O" unicode="O" horiz-adv-x="5" 
 />
    <glyph glyph-name="P" unicode="P" horiz-adv-x="5" 
 />
    <glyph glyph-name="Q" unicode="Q" horiz-adv-x="5" 
 />
    <glyph glyph-name="R" unicode="R" horiz-adv-x="5" 
 />
    <glyph glyph-name="S" unicode="S" horiz-adv-x="5" 
 />
    <glyph glyph-name="T" unicode="T" horiz-adv-x="5" 
 />
    <glyph glyph-name="U" unicode="U" horiz-adv-x="5" 
 />
    <glyph glyph-name="V" unicode="V" horiz-adv-x="5" 
 />
    <glyph glyph-name="W" unicode="W" horiz-adv-x="5" 
 />
    <glyph glyph-name="X" unicode="X" horiz-adv-x="5" 
 />
    <glyph glyph-name="Y" unicode="Y" horiz-adv-x="5" 
 />
    <glyph glyph-name="Z" unicode="Z" horiz-adv-x="5" 
 />
    <glyph glyph-name="bracketleft" unicode="[" horiz-adv-x="262" 
d="M0 -89v713h190v-83h-108v-547h108v-83h-190z" />
    <glyph glyph-name="backslash" unicode="\" horiz-adv-x="467" 
d="M406 20c2 -3.33301 3 -6.33301 3 -9c0 -7.33301 -3 -11 -9 -11h-80c-12 0 -22.333 6.66699 -31 20l-295 475c-2 2.66699 -3 5.66699 -3 9c0 7.33301 3 11 9 11h80c12 0 22.333 -6.66699 31 -20z" />
    <glyph glyph-name="bracketright" unicode="]" horiz-adv-x="271" 
d="M0 -89v83h108v547h-108v83h190v-713h-190z" />
    <glyph glyph-name="asciicircum" unicode="^" horiz-adv-x="371" 
d="M172 644c-6.66699 0 -11.999 -2.66699 -15.999 -8l-156 -148c9.33301 -8.66699 21.666 -13 36.999 -13s26 3.66699 32 11l101 125l105 -125c6 -7.33301 16.667 -11 32 -11c16 0 28.333 4.33301 37 13l-156 148c-4.66699 5.33301 -10 8 -16 8z" />
    <glyph glyph-name="underscore" unicode="_" horiz-adv-x="413" 
d="M0 -37c0 7.33301 3.33301 15.333 10 24s14 13 22 13h286c0 -24.667 -11 -37 -33 -37h-285z" />
    <glyph glyph-name="grave" unicode="`" horiz-adv-x="268" 
d="M51 405c14.667 -35.333 43.668 -53 87.001 -53c14 0 27.667 2 41 6c10 2 13.667 7 11 15l-81 199c-2 4.66699 -5.83301 8 -11.5 10s-9.83398 2.66699 -12.501 2l-74 -30c-7.33301 -3.33301 -11 -10 -11 -20c-0 -2 0.333008 -4 1 -6z" />
    <glyph glyph-name="a" unicode="a" horiz-adv-x="5" 
 />
    <glyph glyph-name="b" unicode="b" horiz-adv-x="5" 
 />
    <glyph glyph-name="c" unicode="c" horiz-adv-x="5" 
 />
    <glyph glyph-name="d" unicode="d" horiz-adv-x="5" 
 />
    <glyph glyph-name="e" unicode="e" horiz-adv-x="5" 
 />
    <glyph glyph-name="f" unicode="f" horiz-adv-x="5" 
 />
    <glyph glyph-name="g" unicode="g" horiz-adv-x="5" 
 />
    <glyph glyph-name="h" unicode="h" horiz-adv-x="5" 
 />
    <glyph glyph-name="i" unicode="i" horiz-adv-x="5" 
 />
    <glyph glyph-name="j" unicode="j" horiz-adv-x="5" 
 />
    <glyph glyph-name="k" unicode="k" horiz-adv-x="5" 
 />
    <glyph glyph-name="l" unicode="l" horiz-adv-x="5" 
 />
    <glyph glyph-name="m" unicode="m" horiz-adv-x="5" 
 />
    <glyph glyph-name="n" unicode="n" horiz-adv-x="5" 
 />
    <glyph glyph-name="o" unicode="o" horiz-adv-x="5" 
 />
    <glyph glyph-name="p" unicode="p" horiz-adv-x="5" 
 />
    <glyph glyph-name="q" unicode="q" horiz-adv-x="5" 
 />
    <glyph glyph-name="r" unicode="r" horiz-adv-x="5" 
 />
    <glyph glyph-name="s" unicode="s" horiz-adv-x="5" 
 />
    <glyph glyph-name="t" unicode="t" horiz-adv-x="5" 
 />
    <glyph glyph-name="u" unicode="u" horiz-adv-x="5" 
 />
    <glyph glyph-name="v" unicode="v" horiz-adv-x="5" 
 />
    <glyph glyph-name="w" unicode="w" horiz-adv-x="5" 
 />
    <glyph glyph-name="x" unicode="x" horiz-adv-x="5" 
 />
    <glyph glyph-name="y" unicode="y" horiz-adv-x="5" 
 />
    <glyph glyph-name="z" unicode="z" horiz-adv-x="5" 
 />
    <glyph glyph-name="braceleft" unicode="{" horiz-adv-x="447" 
d="M276 586c21.333 8.66699 53.665 13.3301 96.998 13.9971c4.66699 -10.667 2.33398 -23.667 -6.99902 -39c-24.667 1.33301 -43.667 0 -57 -4c-32.667 -11.333 -52.667 -23 -60 -35c-9.33301 -16.667 -13 -54.667 -11 -114c0 -34 -11 -62.667 -33 -86
c-27.333 -28.667 -53.666 -49 -78.999 -61v-8c74.667 -34 112 -82.667 112 -146c2 -65.333 4.66699 -102.333 8 -111c4 -12.667 19.333 -25.667 46 -39c16 -8 40.667 -10.667 74 -8c9.33301 -15.333 11.666 -28.333 6.99902 -39
c-51.333 -0.666992 -89.666 5.33301 -114.999 18c-32 16.667 -58.333 41.334 -79 74.001c-18.667 30 -28 59 -28 87c0 50.667 -13 86.334 -39 107.001c-22.667 18 -60 27.667 -112 29v64c51.333 2 88.333 12 111 30c26.667 21.333 40 56.333 40 105
s11.667 85.334 35 110.001c15.333 16 45.333 33.333 90 52z" />
    <glyph glyph-name="bar" unicode="|" horiz-adv-x="109" 
d="M0 -129v713h28v-713h-28z" />
    <glyph glyph-name="braceright" unicode="}" horiz-adv-x="431" 
d="M97 586c-22 8.66699 -54.3311 13.3301 -96.998 13.9971c-4.66699 -10.667 -2.33398 -23.667 6.99902 -39c24.667 1.33301 43.667 0 57 -4c32.667 -11.333 52.667 -23 60 -35c9.33301 -16.667 13 -54.667 11 -114c0 -34 11 -62.667 33 -86
c27.333 -28.667 53.666 -49 78.999 -61v-8c-74.667 -34 -112 -82.667 -112 -146c-2 -65.333 -4.66699 -102.333 -8 -111c-4 -12.667 -19.333 -25.667 -46 -39c-16 -8 -40.667 -10.667 -74 -8c-9.33301 -15.333 -11.666 -28.333 -6.99902 -39
c51.333 -0.666992 89.666 5.33301 114.999 18c32 16.667 58 41.334 78 74.001c19.333 30 29 59 29 87c0 50.667 13 86.334 39 107.001c22.667 18 60 27.667 112 29v64c-51.333 2 -88.333 12 -111 30c-26.667 21.333 -40 56.333 -40 105s-11.667 85.334 -35 110.001
c-15.333 16 -45.333 33.333 -90 52z" />
    <glyph glyph-name="asciitilde" unicode="~" horiz-adv-x="539" 
d="M415 310c-30 -28.667 -60.332 -43 -90.999 -43c-18 0 -48.667 14.667 -92 44c-47.333 32 -80.666 48 -99.999 48c-32.667 0 -55.334 -17 -68.001 -51c0 -2 -2.66699 -16.333 -8 -43l-56 18c18 86 60.667 129 128 129c26 0 51.333 -7 76 -21
c6 -3.33301 30.333 -18.333 73 -45c17.333 -10.667 31.666 -16 42.999 -16c42 0 71 25.667 87 77l50 -18c-4.66699 -30.667 -18.667 -57 -42 -79z" />
    <glyph glyph-name="exclamdown" unicode="&#xa1;" 
 />
    <glyph glyph-name="cent" unicode="&#xa2;" 
 />
    <glyph glyph-name="sterling" unicode="&#xa3;" 
 />
    <glyph glyph-name="currency" unicode="&#xa4;" 
 />
    <glyph glyph-name="yen" unicode="&#xa5;" 
 />
    <glyph glyph-name="brokenbar" unicode="&#xa6;" 
 />
    <glyph glyph-name="section" unicode="&#xa7;" 
 />
    <glyph glyph-name="dieresis" unicode="&#xa8;" 
 />
    <glyph glyph-name="copyright" unicode="&#xa9;" 
 />
    <glyph glyph-name="ordfeminine" unicode="&#xaa;" 
 />
    <glyph glyph-name="macron" unicode="&#xaf;" horiz-adv-x="424" 
d="M87 475v109h247v-109h-247z" />
    <glyph glyph-name="macron" unicode="&#x2c9;" horiz-adv-x="424" 
d="M87 475v109h247v-109h-247z" />
    <glyph glyph-name="degree" unicode="&#xb0;" 
 />
    <glyph glyph-name="questiondown" unicode="&#xbf;" 
 />
    <glyph glyph-name="Agrave" unicode="&#xc0;" 
 />
    <glyph glyph-name="Aacute" unicode="&#xc1;" 
 />
    <glyph glyph-name="Acircumflex" unicode="&#xc2;" 
 />
    <glyph glyph-name="Atilde" unicode="&#xc3;" 
 />
    <glyph glyph-name="Adieresis" unicode="&#xc4;" 
 />
    <glyph glyph-name="Aring" unicode="&#xc5;" 
 />
    <glyph glyph-name="AE" unicode="&#xc6;" 
 />
    <glyph glyph-name="Ccedilla" unicode="&#xc7;" 
 />
    <glyph glyph-name="Egrave" unicode="&#xc8;" 
 />
    <glyph glyph-name="Eacute" unicode="&#xc9;" 
 />
    <glyph glyph-name="Ecircumflex" unicode="&#xca;" 
 />
    <glyph glyph-name="Edieresis" unicode="&#xcb;" 
 />
    <glyph glyph-name="Igrave" unicode="&#xcc;" 
 />
    <glyph glyph-name="Iacute" unicode="&#xcd;" 
 />
    <glyph glyph-name="Icircumflex" unicode="&#xce;" 
 />
    <glyph glyph-name="Idieresis" unicode="&#xcf;" 
 />
    <glyph glyph-name="Eth" unicode="&#xd0;" 
 />
    <glyph glyph-name="Ntilde" unicode="&#xd1;" 
 />
    <glyph glyph-name="Ograve" unicode="&#xd2;" 
 />
    <glyph glyph-name="Oacute" unicode="&#xd3;" 
 />
    <glyph glyph-name="Ocircumflex" unicode="&#xd4;" 
 />
    <glyph glyph-name="Otilde" unicode="&#xd5;" 
 />
    <glyph glyph-name="Odieresis" unicode="&#xd6;" 
 />
    <glyph glyph-name="multiply" unicode="&#xd7;" 
 />
    <glyph glyph-name="Oslash" unicode="&#xd8;" 
 />
    <glyph glyph-name="Ugrave" unicode="&#xd9;" 
 />
    <glyph glyph-name="Uacute" unicode="&#xda;" 
 />
    <glyph glyph-name="Ucircumflex" unicode="&#xdb;" 
 />
    <glyph glyph-name="Udieresis" unicode="&#xdc;" 
 />
    <glyph glyph-name="Yacute" unicode="&#xdd;" 
 />
    <glyph glyph-name="Thorn" unicode="&#xde;" 
 />
    <glyph glyph-name="germandbls" unicode="&#xdf;" 
 />
    <glyph glyph-name="agrave" unicode="&#xe0;" 
 />
    <glyph glyph-name="aacute" unicode="&#xe1;" 
 />
    <glyph glyph-name="acircumflex" unicode="&#xe2;" 
 />
    <glyph glyph-name="atilde" unicode="&#xe3;" 
 />
    <glyph glyph-name="adieresis" unicode="&#xe4;" 
 />
    <glyph glyph-name="aring" unicode="&#xe5;" 
 />
    <glyph glyph-name="ae" unicode="&#xe6;" 
 />
    <glyph glyph-name="ccedilla" unicode="&#xe7;" 
 />
    <glyph glyph-name="egrave" unicode="&#xe8;" 
 />
    <glyph glyph-name="eacute" unicode="&#xe9;" 
 />
    <glyph glyph-name="ecircumflex" unicode="&#xea;" 
 />
    <glyph glyph-name="edieresis" unicode="&#xeb;" 
 />
    <glyph glyph-name="igrave" unicode="&#xec;" 
 />
    <glyph glyph-name="iacute" unicode="&#xed;" 
 />
    <glyph glyph-name="icircumflex" unicode="&#xee;" 
 />
    <glyph glyph-name="idieresis" unicode="&#xef;" 
 />
    <glyph glyph-name="eth" unicode="&#xf0;" 
 />
    <glyph glyph-name="ntilde" unicode="&#xf1;" 
 />
    <glyph glyph-name="ograve" unicode="&#xf2;" 
 />
    <glyph glyph-name="oacute" unicode="&#xf3;" 
 />
    <glyph glyph-name="ocircumflex" unicode="&#xf4;" 
 />
    <glyph glyph-name="otilde" unicode="&#xf5;" 
 />
    <glyph glyph-name="odieresis" unicode="&#xf6;" 
 />
    <glyph glyph-name="divide" unicode="&#xf7;" 
 />
    <glyph glyph-name="oslash" unicode="&#xf8;" 
 />
    <glyph glyph-name="ugrave" unicode="&#xf9;" 
 />
    <glyph glyph-name="uacute" unicode="&#xfa;" 
 />
    <glyph glyph-name="ucircumflex" unicode="&#xfb;" 
 />
    <glyph glyph-name="udieresis" unicode="&#xfc;" 
 />
    <glyph glyph-name="yacute" unicode="&#xfd;" 
 />
    <glyph glyph-name="thorn" unicode="&#xfe;" 
 />
    <glyph glyph-name="ydieresis" unicode="&#xff;" 
 />
    <glyph glyph-name="dotlessi" unicode="&#x131;" horiz-adv-x="321" 
d="M141 7v407h100v-407h-100z" />
    <glyph glyph-name="circumflex" unicode="&#x2c6;" horiz-adv-x="459" 
d="M380 480l-76 138l-75 -138h-49l92 172h66l92 -172h-50z" />
    <glyph glyph-name="caron" unicode="&#x2c7;" horiz-adv-x="336" 
d="M239 445h-65l-92 172h48l76 -137l76 137h49z" />
    <glyph glyph-name="breve" unicode="&#x2d8;" horiz-adv-x="385" 
d="M199 444c-43.333 0 -74.333 21.333 -93 64c-10.667 24 -18.667 58.667 -24 104h41c10 -74 35.333 -111 76 -111c39.333 0 64.333 37 75 111h41c-5.33301 -50 -14 -87 -26 -111c-18.667 -38 -48.667 -57 -90 -57z" />
    <glyph glyph-name="dotaccent" unicode="&#x2d9;" horiz-adv-x="293" 
d="M144 494c-16.667 0 -30.834 5.66699 -42.501 17s-17.5 25.333 -17.5 42s5.83301 30.667 17.5 42s25.834 17 42.501 17c16 0 29.833 -5.83301 41.5 -17.5s17.5 -25.5 17.5 -41.5c0 -16.667 -5.66699 -30.667 -17 -42s-25.333 -17 -42 -17z" />
    <glyph glyph-name="ring" unicode="&#x2da;" horiz-adv-x="348" 
d="M176 450c-26.667 0 -49.167 9.33203 -67.5 27.999s-27.5 41.334 -27.5 68.001s9.16699 49.334 27.5 68.001s40.833 28 67.5 28c26 0 48.167 -9.5 66.5 -28.5s27.5 -41.5 27.5 -67.5c0 -26.667 -9 -49.334 -27 -68.001s-40.333 -28 -67 -28zM178 609.999
c-16.667 0 -31.167 -6 -43.5 -18s-18.5 -26.333 -18.5 -43c0 -17.333 6 -31.833 18 -43.5s26.667 -17.5 44 -17.5s32 5.83301 44 17.5s18 26.167 18 43.5c0 16.667 -6.16699 31 -18.5 43s-26.833 18 -43.5 18z" />
    <glyph glyph-name="ogonek" unicode="&#x2db;" horiz-adv-x="216" 
d="M227 -131c-20.667 -4.66699 -37.332 -7.00098 -49.999 -7.00098c-64 0 -96 48.667 -96 146c0 8.66699 0.333008 21.334 1 38.001h30c-0.666992 -12.667 -1 -22.667 -1 -30c0 -26 7.16699 -48 21.5 -66s34.166 -27 59.499 -27c9.33301 0 22.333 2.66699 39 8
c-2 -23.333 -3.33301 -44 -4 -62z" />
    <glyph glyph-name="tilde" unicode="&#x2dc;" horiz-adv-x="421" 
d="M369 511c-12 0 -30 4.16699 -54 12.5s-41.333 12.5 -52 12.5c-20.667 0 -41 -12 -61 -36l-35 23c19.333 36 46.666 54 81.999 54c12.667 0 31.334 -4.16699 56.001 -12.5s43.667 -12.5 57 -12.5c28 0 46.667 10.333 56 31l33 -25c-4 -14 -10.333 -23.667 -19 -29
l-31.5 -12c-10.333 -4 -20.833 -6 -31.5 -6z" />
    <glyph glyph-name="hungarumlaut" unicode="&#x2dd;" horiz-adv-x="410" 
d="M274 471h-41l52 173h67zM123 471h-41l52 173h67z" />
    <glyph glyph-name="alef" unicode="&#x5d0;" horiz-adv-x="509" 
d="M147 256c-2 -2.66699 -2.99902 -5 -2.99902 -7l-46 -257c-2 -8 -8 -10.333 -18 -7c-56 18.667 -84 49.334 -84 92.001c0 5.33301 0.333008 11 1 17l21 110c8.66699 47.333 41 78.333 97 93l-112 145c-2 2 -3 4 -3 6c0 4.66699 4.33301 10.334 13 17.001l59 46
c2 2 4.66699 3 8 3c5.33301 0 13 -6.33301 23 -19l184 -246c6.66699 8 10 13.667 10 17l45 242c1.33301 8 7 10.333 17 7c57.333 -18 86 -47.333 86 -88c0 -6.66699 -1 -13.334 -3 -20.001l-23 -96c-12 -50 -46 -83.667 -102 -101l114 -152c8.66699 -12 7 -22.667 -5 -32
l-46 -35c-10.667 -8.66699 -20.334 -7.33398 -29.001 3.99902z" />
    <glyph glyph-name="bet" unicode="&#x5d1;" horiz-adv-x="492" 
d="M413 0h-412.999c0 6.66699 3.33301 14.5 10 23.5s14 13.5 22 13.5h168c31.333 0 56.666 24.667 75.999 74c17.333 44.667 26 98 26 160c0 57.333 -7.66699 105 -23 143c-16.667 42.667 -39.667 64 -69 64h-178c-8 0 -15.333 4.33301 -22 13s-10 16.667 -10 24h210
c64.667 0 115.667 -25.667 153 -77c34 -46.667 51 -104 51 -172c0 -46.667 -8.33301 -90 -25 -130c-18 -42.667 -43 -75.667 -75 -99h66c22 0 33 -12.333 33 -37z" />
    <glyph glyph-name="gimel" unicode="&#x5d2;" horiz-adv-x="400" 
d="M328 27c1.33301 -10.667 -4.66602 -17.333 -17.999 -20l-57 -11c-13.333 -2.66699 -22 3.33301 -26 18l-16 58c-8 29.333 -12 53 -12 71v78c-32 -10.667 -53.667 -41.667 -65 -93l-22 -121c-4 -14 -10 -20.667 -18 -20l-76 13c-12.667 2 -18.667 8.66699 -18 20
c13.333 76.667 21.333 119.334 24 128.001c9.33301 35.333 25.666 60.333 48.999 75c26 16.667 68 26 126 28v65c0 51.333 -4 89.333 -12 114c-12.667 34.667 -35 52 -67 52c-12 0 -28 -3.33301 -48 -10c-15.333 10 -23 21 -23 33c38 9.33301 67.667 12.666 89 9.99902
c30.667 -4 60 -16.333 88 -37c59.333 -44 89 -116.667 89 -218v-121c0 -24 4.33301 -61.333 13 -112z" />
    <glyph glyph-name="dalet" unicode="&#x5d3;" horiz-adv-x="492" 
d="M424 515c0 -12.667 -9.33301 -24.001 -28 -34.001c-24.667 -12.667 -42 -26.334 -52 -41.001c-18.667 -27.333 -28 -68.666 -28 -123.999v-224c0 -26 -10 -47.167 -30 -63.5s-43.333 -25.833 -70 -28.5c-10.667 -1.33301 -16 2 -16 10v250
c0 96.667 33.333 169.334 100 218.001h-268c-8 0 -15.333 4.33301 -22 13s-10 16.667 -10 24h424z" />
    <glyph glyph-name="he" unicode="&#x5d4;" horiz-adv-x="484" 
d="M408 92c0 -26 -10.666 -47.667 -31.999 -65c-18.667 -15.333 -41.334 -24.333 -68.001 -27c-10.667 -1.33301 -16 2 -16 10v246c0 64.667 -3.66699 111.667 -11 141c-13.333 54 -40.333 81 -81 81h-168c-8 0 -15.333 4.33301 -22 13s-10 16.667 -10 24h200
c64 0 114.667 -23 152 -69s56 -108 56 -186v-168zM125.001 92c0 -26 -10 -47.167 -30 -63.5s-43.333 -25.833 -70 -28.5c-10.667 -1.33301 -16 2 -16 10v266c28 26.667 66.667 40 116 40v-224z" />
    <glyph glyph-name="vav" unicode="&#x5d5;" horiz-adv-x="197" 
d="M116 92c0 -26 -10.002 -47.167 -30.002 -63.5s-43.333 -25.833 -70 -28.5c-10.667 -1.33301 -16 2 -16 10v485c0 5.33301 2.33301 10 7 14s8.33398 6 11.001 6h80c2.66699 0 6.33398 -2 11.001 -6s7 -8.66699 7 -14v-403z" />
    <glyph glyph-name="zayin" unicode="&#x5d6;" horiz-adv-x="288" 
d="M217 515c0 -7.33301 -3.33203 -15.333 -9.99902 -24s-14 -13 -22 -13h-77c59.333 -44 89 -116.667 89 -218v-168c0 -26 -10.667 -47.667 -32 -65c-18.667 -15.333 -41.334 -24.333 -68.001 -27c-10.667 -1.33301 -16 2 -16 10v306c0 90 -14.333 141.667 -43 155
c-14.667 6.66699 -24 12 -28 16c-6.66699 6.66699 -10 16 -10 28h217z" />
    <glyph glyph-name="het" unicode="&#x5d7;" horiz-adv-x="493" 
d="M416 92c0 -26 -10.667 -47.667 -32 -65c-18.667 -15.333 -41.334 -24.333 -68.001 -27c-10.667 -1.33301 -16 2 -16 10v246c0 64.667 -3.66699 111.667 -11 141c-13.333 54 -40.333 81 -81 81h-92v-386c0 -26 -10 -47.167 -30 -63.5s-43.333 -25.833 -70 -28.5
c-10.667 -1.33301 -16 2 -16 10v485c0 5.33301 2.33301 10 7 14s8.33398 6 11.001 6h190c64 0 114.667 -23 152 -69s56 -108 56 -186v-168z" />
    <glyph glyph-name="tet" unicode="&#x5d8;" horiz-adv-x="496" 
d="M418 261c0 -74 -18.6689 -135.666 -56.002 -184.999c-39.333 -51.333 -90.666 -77 -153.999 -77c-64 0 -114.667 23.167 -152 69.5s-56 108.5 -56 186.5v163c0 26.667 10.667 48.667 32 66c18.667 15.333 41.334 24.333 68.001 27c10.667 1.33301 16 -2 16 -10v-242
c0 -64 4 -111.333 12 -142c14 -54 41.333 -81 82 -81c64 1.33301 96 73.666 96 216.999c0 60 -2 103.667 -6 131c-8.66699 61.333 -28 92 -58 92c-9.33301 0 -20 -3.33301 -32 -10c-15.333 -4.66699 -26 2 -32 20c19.333 11.333 34 18.333 44 21s25.333 4 46 4
c54.667 0 95 -28 121 -84c19.333 -42.667 29 -98 29 -166z" />
    <glyph glyph-name="yod" unicode="&#x5d9;" horiz-adv-x="196" 
d="M116 282c0 -26 -10.002 -47.167 -30.002 -63.5s-43.333 -25.833 -70 -28.5c-10.667 -1.33301 -16 2 -16 10v295c0 5.33301 2.33301 10 7 14s8.33398 6 11.001 6h80c2.66699 0 6.33398 -2 11.001 -6s7 -8.66699 7 -14v-213z" />
    <glyph glyph-name="kaffinal" unicode="&#x5da;" horiz-adv-x="462" 
d="M396 -147c0.666992 -11.333 -5.33301 -17.998 -18 -19.998l-76 -13c-2.66699 -0.666992 -6 1.16602 -10 5.49902s-6.66699 9.16602 -8 14.499c-12 58 -17.667 97.333 -17 118v301c0 64.667 -3.66699 111.667 -11 141c-13.333 54 -40.333 81 -81 81h-143
c-8 0 -15.333 4.33301 -22 13s-10 16.334 -10 23.001h175c64.667 0 115.5 -22.833 152.5 -68.5s55.5 -107.834 55.5 -186.501v-298c0 -23.333 4.33301 -60.333 13 -111z" />
    <glyph glyph-name="kaf" unicode="&#x5db;" horiz-adv-x="497" 
d="M418 250c0 -132.667 -52.333 -214.331 -157 -244.998c-23.333 -6.66699 -48 -10 -74 -10c-56 0 -118.333 14.333 -187 43c3.33301 19.333 13 27.666 29 24.999c62.667 -21.333 111.667 -32 147 -32c46 0 79.333 18.167 100 54.5s31 97.166 31 182.499
c0 52.667 -6.66699 97 -20 133c-18 50.667 -47.333 76 -88 76c-13.333 0 -23.333 0.333008 -30 1h-137c-8 0 -15.333 4.33301 -22 13s-10 16.667 -10 24h210c63.333 0 114.333 -26.333 153 -79c36.667 -50 55 -112 55 -186z" />
    <glyph glyph-name="lamed" unicode="&#x5dc;" horiz-adv-x="477" 
d="M211 515c55.333 0 100.834 -22.5 136.501 -67.5s53.5 -98.167 53.5 -159.5c0 -66 -21.333 -125.333 -64 -178c-48 -60 -118.333 -101.667 -211 -125c-3.33301 7.33301 -5 13.333 -5 18c0 8 4.66699 14.333 14 19c48 11.333 86 46.333 114 105
c24.667 51.333 37 109.333 37 174c0 50 -7.66699 91.333 -23 124c-16.667 35.333 -39.334 53 -68.001 53h-173c-14.667 0 -22 9 -22 27v120c28 26.667 66.667 40 116 40v-150h95z" />
    <glyph glyph-name="memfinal" unicode="&#x5dd;" horiz-adv-x="527" 
d="M450 20c0 -13.333 -6 -20 -18 -20h-378c-12 0 -18 6.66699 -18 20l-1 250c0 43.333 -5.66699 85.333 -17 126c-7.33301 26.667 -15 53 -23 79c-1.33301 9.33301 4.66699 16 18 20l68 18c9.33301 2.66699 16 -1.33301 20 -12l13 -34c34 29.333 76.333 44.333 127 45
c64 0 115.333 -25.667 154 -77c36.667 -49.333 55 -111 55 -185v-230zM334 37v231c0 135.333 -33 203.333 -99 204c-47.333 0.666992 -83 -12.666 -107 -39.999c16.667 -54.667 25 -110.334 25 -167.001v-228h181z" />
    <glyph glyph-name="mem" unicode="&#x5de;" horiz-adv-x="529" 
d="M450 250c0 -64 -11.335 -117.333 -34.002 -160c-27.333 -51.333 -68.666 -81 -123.999 -89c-40 -6 -76.333 -2.33301 -109 11c3.33301 19.333 13 27.333 29 24c12 -3.33301 23 -5 33 -5c44 0 72.333 33 85 99c5.33301 26.667 8 72.667 8 138
c0 135.333 -34.333 203.333 -103 204c-47.333 0.666992 -83 -12.666 -107 -39.999c13.333 -44 20 -101.667 20 -173c0 -86 -8.33301 -170 -25 -252c-1.33301 -5.33301 -4.16602 -10 -8.49902 -14s-7.5 -6 -9.5 -6l-76 13c-12.667 2 -18.667 8.66699 -18 20
c13.333 78.667 20 149.667 20 213c0 53.333 -5 103.666 -15 150.999c-6.66699 30.667 -13.667 61 -21 91c-1.33301 9.33301 4.66699 16 18 20l68 18c9.33301 2.66699 16 -1.33301 20 -12l13 -34c34 29.333 76.333 44.333 127 45c64 0 115.333 -25.667 154 -77
c36.667 -49.333 55 -111 55 -185z" />
    <glyph glyph-name="nunfinal" unicode="&#x5df;" horiz-adv-x="197" 
d="M130 -147c0.666992 -11.333 -5.33594 -17.998 -18.0029 -19.998l-76 -13c-2.66699 -0.666992 -6.16699 1.16602 -10.5 5.49902s-7.16602 9.16602 -8.49902 14.499c-11.333 58 -17 97.333 -17 118v537c0 5.33301 2.33301 10 7 14s8.33398 6 11.001 6h81
c2.66699 0 6.33398 -2 11.001 -6s7 -8.66699 7 -14v-531c0 -23.333 4.33301 -60.333 13 -111z" />
    <glyph glyph-name="nun" unicode="&#x5e0;" horiz-adv-x="321" 
d="M249 27c0.666992 -9.33301 -6 -16.332 -20 -20.999c-10 -4 -21 -6 -33 -6h-196c-0 6.66699 3.33301 14.5 10 23.5s14 13.5 22 13.5h109c-14 42.667 -21 74.667 -21 96v183c0 53.333 -3.66699 91.333 -11 114c-10.667 34.667 -32 52 -64 52c-4 0 -8 -1 -12 -3
c-15.333 10 -23 20.333 -23 31c24.667 2.66699 44.334 3.66699 59.001 3c57.333 -4.66699 100.666 -33 129.999 -85c24.667 -42.667 37 -95.334 37 -158.001v-131c0 -24 4.33301 -61.333 13 -112z" />
    <glyph glyph-name="samekh" unicode="&#x5e1;" horiz-adv-x="540" 
d="M466 250c0 -60.667 -12.668 -113.001 -38.001 -157.001c-28 -50 -68 -81 -120 -93c-20.667 -4.66699 -42.667 -7 -66 -7c-47.333 0 -86.333 9.66699 -117 29c-37.333 23.333 -62 53.666 -74 90.999c-9.33301 28.667 -14 74.334 -14 137.001c0 44 -5 89.333 -15 136
l-21 89c-1.33301 9.33301 4.66699 16 18 20l68 18c9.33301 2.66699 16 -1.33301 20 -12l13 -34c14.667 12.667 36.334 23.334 65.001 32.001c26.667 8.66699 50.667 13 72 13c64 0 115.333 -25.667 154 -77c36.667 -49.333 55 -111 55 -185zM353.999 267.999
c0 135.333 -34.333 203.334 -103 204.001c-26 0.666992 -50.667 -3.66602 -74 -12.999c-20 -8 -34.333 -17 -43 -27c10 -32.667 15 -88.334 15 -167.001c0 -64.667 2 -108.334 6 -131.001c11.333 -54 36.666 -85 75.999 -93l26 -1c42.667 -1.33301 71.334 26.667 86.001 84
c7.33301 30 11 78 11 144z" />
    <glyph glyph-name="ayin" unicode="&#x5e2;" horiz-adv-x="495" 
d="M416 275c0 -148.667 -61.999 -241 -185.999 -277l-192 -55c-2 6.66699 -0.833008 15.167 3.5 25.5s10.166 16.5 17.499 18.5l96 28c-10.667 4.66699 -17.334 10 -20.001 16c-11.333 24.667 -24 64 -38 118l-94 356c-1.33301 4.66699 -0.666016 7.66699 2.00098 9
s6.33398 1.66602 11.001 0.999023c66.667 4.66699 106.667 -18.666 120 -69.999l76 -290c5.33301 -24.667 16 -61.667 32 -111c27.333 18 44.666 53.333 51.999 106c2.66699 18.667 4 61.667 4 129v226c0 8 5.33301 11.333 16 10c66.667 -19.333 100 -50.333 100 -93v-147z
" />
    <glyph glyph-name="pefinal" unicode="&#x5e3;" horiz-adv-x="533" 
d="M463 -147c0.666992 -11.333 -5.33203 -17.998 -17.999 -19.998l-77 -13c-2 -0.666992 -5.16699 1.16602 -9.5 5.49902s-7.16602 9.16602 -8.49902 14.499c-11.333 58 -17 97.333 -17 118v288c0 150.667 -32.667 226 -98 226c-48 0.666992 -83.667 -12.666 -107 -39.999
c10 -34.667 11.667 -99.334 5 -194.001h25c17.333 0 26 -14.333 26 -43h-81c-34 0 -59 9 -75 27c-10.667 11.333 -15.334 23 -14.001 35c2.66699 30 4 56 4 78c0 25.333 -7 72 -21 140c-2 9.33301 4 16 18 20l66 18c9.33301 2.66699 16 -1.33301 20 -12l13 -34
c29.333 25.333 71.666 38 126.999 38c64.667 0 115.5 -23 152.5 -69s55.5 -108 55.5 -186v-286c0 -23.333 4.66699 -60.333 14 -111z" />
    <glyph glyph-name="pe" unicode="&#x5e4;" horiz-adv-x="529" 
d="M450 250c0 -132.667 -52.665 -214.332 -157.998 -244.999c-22 -6.66699 -47 -10 -75 -10c-64.667 0 -132.334 15 -203.001 45c3.33301 19.333 13 27.666 29 24.999c67.333 -23.333 115.666 -35.333 144.999 -36c54.667 -1.33301 93.334 16.167 116.001 52.5
s34 98.5 34 186.5c0 135.333 -34.333 203.333 -103 204c-47.333 0.666992 -83 -12.666 -107 -39.999c10 -34.667 11.667 -99.334 5 -194.001h25c17.333 0 26 -14.333 26 -43h-81c-34 0 -59 9 -75 27c-10.667 11.333 -15.334 23 -14.001 35c2.66699 30 4 56 4 78
c0 25.333 -7 72 -21 140c-2 9.33301 4 16 18 20l66 18c9.33301 2.66699 16 -1.33301 20 -12l13 -34c34 29.333 76.333 44.333 127 45c64 0 115.333 -25.667 154 -77c36.667 -49.333 55 -111 55 -185z" />
    <glyph glyph-name="tsadifinal" unicode="&#x5e5;" horiz-adv-x="515" 
d="M445 401c0 -61.333 -11.668 -108.998 -35.001 -142.998c-20 -28 -54 -52.333 -102 -73v-221c0 -23.333 4.66699 -60.333 14 -111c0.666992 -11.333 -5.33301 -18 -18 -20l-77 -13c-2 -0.666992 -5.16699 1.16602 -9.5 5.49902s-7.16602 9.16602 -8.49902 14.499
c-11.333 58 -17 97.333 -17 118v191c0 13.333 -4.33301 26.333 -13 39l-183 267c-1.33301 2 -2 3.66699 -2 5c0 4 5 9 15 15l70 40c5.33301 2.66699 13.333 -4 24 -20l184 -277c20.667 16.667 33.667 40.667 39 72c2 14 3 45.667 3 95v116c0 8 5.33301 11.333 16 10
c66.667 -19.333 100 -50.333 100 -93v-17z" />
    <glyph glyph-name="tsadi" unicode="&#x5e6;" horiz-adv-x="511" 
d="M430 63c3.33301 -2.66699 4.99805 -6.33203 4.99805 -10.999c0 -7.33301 -3.33301 -14.333 -10 -21l-32 -31h-377c0 6.66699 3.33301 14.5 10 23.5s14 13.5 22 13.5h273c-64.667 42.667 -122 93.667 -172 153c-47.333 56 -97 144.333 -149 265
c-1.33301 2 -2 4.33301 -2 7c0 6.66699 4 12 12 16l65 33c4.66699 2 9 3 13 3c4.66699 0 10.667 -6.33301 18 -19c12.667 -30 25.334 -58.333 38.001 -85c30 -63.333 57.333 -112 82 -146c17.333 -23.333 36 -46 56 -68c33.333 26 50 63.333 50 112v193
c0 8 5.33301 11.333 16 10c66.667 -10 100 -41 100 -93v-54c0 -49.333 -15.667 -92 -47 -128c-19.333 -22.667 -49.666 -46.334 -90.999 -71.001c37.333 -38 77.333 -72 120 -102z" />
    <glyph glyph-name="qof" unicode="&#x5e7;" horiz-adv-x="539" 
d="M273 515c58.667 0 106.331 -18.332 142.998 -54.999s55 -83.334 55 -140.001c0 -54 -17.667 -108.333 -53 -163c-39.333 -61.333 -97.333 -117 -174 -167c-8 8 -12 15 -12 21c0 5.33301 3 10.666 9 15.999c38.667 24.667 68.667 62.334 90 113.001
c18.667 46 28 95.333 28 148c0 50.667 -9 93.834 -27 129.501s-43 54.834 -75 57.501c-24.667 2 -50 -2.33301 -76 -13c-21.333 -8.66699 -36.666 -18.667 -45.999 -30c13.333 -44 20 -105.667 20 -185v-283c0 -4 6 -41 18 -111c0.666992 -11.333 -5.33301 -18 -18 -20
l-76 -13c-2.66699 -0.666992 -6.16699 1.16602 -10.5 5.49902s-6.83301 9.16602 -7.5 14.499c-12 58 -18 97.333 -18 118v283c0 50 -5.66699 98.333 -17 145l-24 89c-1.33301 9.33301 4.66699 16 18 20l68 18c9.33301 2.66699 16 -1.33301 20 -12l13 -34
c42.667 32 93.334 48 152.001 48z" />
    <glyph glyph-name="resh" unicode="&#x5e8;" horiz-adv-x="464" 
d="M388 92c0 -26 -10.666 -47.667 -31.999 -65c-18.667 -15.333 -41.334 -24.333 -68.001 -27c-10.667 -1.33301 -16 2 -16 10v246c0 64.667 -3.66699 111.667 -11 141c-13.333 54 -40.333 81 -81 81h-148c-8 0 -15.333 4.33301 -22 13s-10 16.667 -10 24h180
c64 0 114.667 -23 152 -69s56 -108 56 -186v-168z" />
    <glyph glyph-name="shin" unicode="&#x5e9;" horiz-adv-x="580" 
d="M504 261c0 -79.333 -24.001 -142.836 -72.001 -190.503s-108.333 -71.5 -181 -71.5c-72 0.666992 -131.833 24.334 -179.5 71.001s-71.5 108.334 -71.5 185.001v163c0 26.667 10.667 48.667 32 66c18.667 15.333 41.334 24.333 68.001 27c10.667 1.33301 16 -2 16 -10
v-242c0 -41.333 2.66699 -74.666 8 -99.999c41.333 17.333 64.333 55.333 69 114l2 145c0 52 33.333 83 100 93c11.333 1.33301 17 -2 17 -10v-140c0 -67.333 -8.33301 -114 -25 -140c-22.667 -34 -74 -66.667 -154 -98c20.667 -58 60.667 -87 120 -87
c57.333 0 96.333 27.333 117 82c12 31.333 18 77 18 137v163c0 26.667 10.333 48.667 31 66c19.333 15.333 42.333 24.333 69 27c10.667 1.33301 16 -2 16 -10v-240z" />
    <glyph glyph-name="tav" unicode="&#x5ea;" horiz-adv-x="556" 
d="M480 92c0 -26 -10.668 -47.667 -32.001 -65c-18.667 -15.333 -41.334 -24.333 -68.001 -27c-10.667 -1.33301 -16 2 -16 10v246c0 65.333 -3.66699 112.333 -11 141c-13.333 54 -40.333 81 -81 81h-92v-317c0 -65.333 -6.5 -109.166 -19.5 -131.499
s-36.5 -33.5 -70.5 -33.5c-11.333 0 -25.666 0.666992 -42.999 2c-14.667 2 -27.667 4.66699 -39 8c-7.33301 3.33301 -10 8 -8 14l5 17c2 6.66699 5.66699 9.66699 11 9c12.667 -2.66699 21 -4 25 -4c10 0 16.333 5.16699 19 15.5s4 32.5 4 66.5v371
c0 5.33301 2.33301 10 7 14s8.33398 6 11.001 6h190c65.333 0 116.333 -22.833 153 -68.5s55 -107.834 55 -186.501v-168z" />
    <glyph glyph-name="quoteleft" unicode="&#x2018;" 
 />
    <glyph glyph-name="quoteright" unicode="&#x2019;" 
 />
    <glyph glyph-name="quotesinglbase" unicode="&#x201a;" 
 />
    <glyph glyph-name="quotereversed" unicode="&#x201b;" 
 />
    <glyph glyph-name="quotedblleft" unicode="&#x201c;" 
 />
    <glyph glyph-name="quotedblright" unicode="&#x201d;" 
 />
    <glyph glyph-name="ellipsis" unicode="&#x2026;" 
 />
    <glyph glyph-name="musicalnotedbl" unicode="&#x266b;" horiz-adv-x="1000" 
 />
    <glyph glyph-name=".null" horiz-adv-x="0" 
 />
    <glyph glyph-name="nonmarkingreturn" horiz-adv-x="350" 
 />
    <glyph glyph-name="glyph4" horiz-adv-x="5" 
 />
    <glyph glyph-name="glyph193" horiz-adv-x="5" 
 />
    <glyph glyph-name="glyph194" horiz-adv-x="5" 
 />
    <glyph glyph-name="glyph4" horiz-adv-x="5" 
 />
  </font>
</defs>
</svg>
